/* XPM */
static char *_43a59c6fcfa4a9dee7b7b3cf4b85d8duTfkFptwnECzTg10[] = {
/* columns rows colors chars-per-pixel */
"32 32 205 2 ",
"   c #020102",
".  c #0A0605",
"X  c #070804",
"o  c #090906",
"O  c #04030A",
"+  c #0A0609",
"@  c #0D0A0A",
"#  c #120B05",
"$  c #120C0C",
"%  c #180F0E",
"&  c #14120C",
"*  c #1D170C",
"=  c #040513",
"-  c #0D0B13",
";  c #090A17",
":  c #09071C",
">  c #130D13",
",  c #1D0B12",
"<  c #110D1A",
"1  c #0F1019",
"2  c #141611",
"3  c #191212",
"4  c #1C1917",
"5  c #15131C",
"6  c #25150F",
"7  c #230F15",
"8  c #251A18",
"9  c #1F2917",
"0  c #2F241D",
"q  c #2B2818",
"w  c #3B2718",
"e  c #2F3017",
"r  c #36341D",
"t  c #0A0924",
"y  c #070C29",
"u  c #170A28",
"i  c #110D2A",
"p  c #09172A",
"a  c #131322",
"s  c #1B1A24",
"d  c #14152C",
"f  c #191928",
"g  c #170D35",
"h  c #131433",
"j  c #1C1333",
"k  c #1D1D33",
"l  c #161938",
"z  c #221726",
"x  c #31192E",
"c  c #200A3A",
"v  c #211537",
"b  c #231C37",
"n  c #231639",
"m  c #0E2235",
"M  c #172236",
"N  c #1C2031",
"B  c #292425",
"V  c #3B2E21",
"C  c #35252A",
"Z  c #2F352B",
"A  c #353328",
"S  c #222235",
"D  c #2A2735",
"F  c #262339",
"G  c #2A233A",
"H  c #4B1C1E",
"J  c #4A251F",
"K  c #4C341E",
"L  c #60331A",
"P  c #411A2E",
"I  c #462722",
"U  c #592121",
"Y  c #443323",
"T  c #46372B",
"R  c #503523",
"E  c #483635",
"W  c #682732",
"Q  c #4F4C2F",
"!  c #55432B",
"~  c #4D512D",
"^  c #474236",
"/  c #574737",
"(  c #55533B",
")  c #6D542F",
"_  c #6B4C3A",
"`  c #271B43",
"'  c #361E43",
"]  c #272540",
"[  c #382743",
"{  c #421845",
"}  c #542B4A",
"|  c #732C4A",
" . c #722D52",
".. c #5D5757",
"X. c #655749",
"o. c #725D43",
"O. c #6A5E54",
"+. c #706449",
"@. c #756A5A",
"#. c #7B6E5E",
"$. c #7E735E",
"%. c #5D6469",
"&. c #656666",
"*. c #696766",
"=. c #656866",
"-. c #6C6965",
";. c #746D63",
":. c #7A6F61",
">. c #7B7161",
",. c #88373D",
"<. c #9B3537",
"1. c #8D5C36",
"2. c #996639",
"3. c #A96835",
"4. c #B06F36",
"5. c #AA763F",
"6. c #B67536",
"7. c #B97535",
"8. c #BE7835",
"9. c #B6773A",
"0. c #C4792A",
"q. c #C26E32",
"w. c #C37A35",
"e. c #CA7D34",
"r. c #D27E34",
"t. c #8B3A49",
"y. c #853355",
"u. c #9C3550",
"i. c #A73A59",
"p. c #8B4651",
"a. c #835055",
"s. c #AB425D",
"d. c #866D4D",
"f. c #9E7747",
"g. c #96774D",
"h. c #9B774A",
"j. c #99784B",
"k. c #836F5F",
"l. c #8C7555",
"z. c #84735B",
"x. c #897559",
"c. c #8A7C5D",
"v. c #927652",
"b. c #967A57",
"n. c #BC634B",
"m. c #A47643",
"M. c #A87640",
"N. c #A1774E",
"B. c #A47E4D",
"V. c #8D7076",
"C. c #B17F73",
"Z. c #C64757",
"A. c #DC5252",
"S. c #C67C4A",
"D. c #C14760",
"F. c #D54E61",
"G. c #E75561",
"H. c #A48730",
"J. c #BA8138",
"K. c #C58337",
"L. c #CD8435",
"P. c #CD8837",
"I. c #D78636",
"U. c #DC8432",
"Y. c #CF9538",
"T. c #DA9437",
"R. c #DB9C3C",
"E. c #E98834",
"W. c #E69938",
"Q. c #E6AD3C",
"!. c #F8A034",
"~. c #F8B43B",
"^. c #F8CA3A",
"/. c #908958",
"(. c #A8834A",
"). c #BC8441",
"_. c #AE934E",
"`. c #BDAE57",
"'. c #958965",
"]. c #B99967",
"[. c #B4AD78",
"{. c #DF8A5D",
"}. c #CE9955",
"|. c #DAA149",
" X c #DBD346",
".X c #EDCB42",
"XX c #FFCA42",
"oX c #FBE94D",
"OX c #D2C566",
"+X c #F3CF6F",
"@X c #E4D36F",
"#X c #989385",
"$X c #E7968A",
"%X c #C5B894",
"&X c #DCD987",
"*X c #D3C995",
"=X c #F5CC98",
"-X c #EAE886",
";X c #CBC9B5",
":X c #FAD6A6",
">X c #FFF0AF",
",X c #FFEDB4",
"<X c #FFFDC5",
"1X c #FFFFCA",
"2X c #FFFFDB",
/* pixels */
"%.&.-.*.-.;.;.;.;.;.;.*.&.-.;.;.;.;.;.;.;.;.-.;.-.-.-.-.;.;.-.=.",
"*.*.*.-.k.k.>.;.;.-.*.-.k.k.:.;.;.-.-.-.;.;.;.;.;.;.>.c.$.$.;.;.",
"*.-.-.=.=.;.;.-.-.&.*.*.-.=.-.:.;.-.*.-.;.;.>.$.>.>.>.;.;.>.$.>.",
"&.*.;.;.;.;.;.O.X.@.c.>.:.z.z.>.;.&.&.-.;.>.$.$.>.>.=.=.=.;.>.;.",
"-.;.;.$.$.O._ E x _ OX'.z.l.l.#.;.;.#.#.c.x.z.>.>.*.=.-.-.;.>.-.",
"k.N.N.v.o.Y 0 + 2 @X&X*Xd.v.v.l.x.z.z.x.b.b.x.x.z.>.@.@.>.b.z.*.",
"g.l.x.c.!         Q ( *Xx.l.x.z.x.l.x.l.v.g.l.x.l.g.g.g.v.x.x.v.",
"h.h.g.(.Y           ^ -X(.h.g.h.g.g.l.x.l.x.x.l.b.g.f.h.h.g.g.g.",
"m.f.f.M.K           T [.].h.h.h.h.m.h.g.g.g.g.N.m.5.M.m.m.g.j.j.",
"g.f.m.(.)           z #X*X2.m.f.m.5.m.m.m.m.5.m.m.m.m.m.m.m.f.h.",
"5.5.M.).K           z A /.B.m.5.5.5.m.m.5.5.M.M.5.5.5.5.5.5.M.m.",
"7.6.6.n.,           z E ( 9.6.6.w.e.7.8.I.I.e.6.6.6.8.8.6.6.6.9.",
"w.w.3.u             8 p.y.}.0.w.e.L.w.w.P.Q.P.8.7.w.e.L.T.Y.K.w.",
"|.E.S.{ .           t } s.$X}.7.8.6.7.w.e.4.w.8.8.7.7.7.J.K.e.e.",
"S.E.q.z O             P  .y.{.8.P.w.w.r.2.k 1.L.K.0.8.8.w.K.P.K.",
"1.R.!.L O         O - g c V.:X0.T.W.E.U.C h G 7.E.U.U.E.r.W.T.r.",
"x ) _.H.w           - c V.<X2X+X^..XJ.A l F l ^ .X~.~.Y.T _.XX~.",
"H T F 1 e 8 O     O - g C.,X<X1X+.B l M F F F h (  XoX) # ) @XoX",
"6 J } N 1 A q       O : u C.,X1X;X] l F F S S S h n ! # + 7 ) `.",
"# 6 B S z D z =   O = u y | =X>X<X%Xp F S F G F G C + + + & R / ",
". # s b F b f < O = : j n y.a.:X<X%Xd S F S S D F f -   . # 0 w ",
"  5 S S S S k a : : t i } y.p G ..D S F S S D B z z - X     @ u ",
"5 k N s S S b d t t t j i.t.m k h S S N S V 6 * 2 2 F 5 + 5 k - ",
"- - - @ 5 5 s d t t y [ A.,.p a 5 5 1 @ 2 .   4 q O 5 M - d -   ",
"X             t t t g [ F.<.        X X       @ 6     + + $ $ & ",
"3 $ .   X X = t t t j ' i.A.        X .   X X   X X + @ 2 A $ q ",
"> + % @ .   : t t i n n  .G.U     .             @ 9 r &   2 +   ",
"  . @ X + O t t t i n l { D.<.X $ I $ X &       @ @ C + X + $   ",
"2 2       = t t t i v n ] i.Z.X   @ + X 2 >   e r   ; @ 0 >   9 ",
"@ T @ & ~ ; t t t t j n ` y.G.H   0 B   X > 9 A @     + X 3 @ C ",
"q 8 & V q = t t t t u n ` y.F.W   q /.e   o B +           q 2 $ ",
"- @   x > : t t t t t v l i.Z.u.  X X Z + + @   . ^ (     . 3 . "
};
