/* XPM */
static char *_1f7cd2ab63c4b428a9f9d5531616f0cHVcKOs5Vp8jW22qM[] = {
/* columns rows colors chars-per-pixel */
"32 32 179 2 ",
"   c #000004",
".  c #00050A",
"X  c #00090E",
"o  c #000D11",
"O  c #080F11",
"+  c #000D19",
"@  c #041115",
"#  c #0B1012",
"$  c #051419",
"%  c #09161A",
"&  c #0C191D",
"*  c #1D1614",
"=  c #121B1D",
"-  c #1A1E1E",
";  c #211915",
":  c #121E21",
">  c #162022",
",  c #1A2325",
"<  c #172529",
"1  c #1B2628",
"2  c #1E2B2D",
"3  c #2A2A26",
"4  c #232A2A",
"5  c #2A2B2A",
"6  c #352B24",
"7  c #332E2C",
"8  c #3A2E28",
"9  c #2B302F",
"0  c #3E342F",
"q  c #242E32",
"w  c #253132",
"e  c #293335",
"r  c #353634",
"t  c #393C3A",
"y  c #403628",
"u  c #433B33",
"i  c #423E3C",
"p  c #45413C",
"a  c #4D423C",
"s  c #3A4546",
"d  c #3B4646",
"f  c #484742",
"g  c #4A4944",
"h  c #444A49",
"j  c #4E4F4C",
"k  c #554B45",
"l  c #544C45",
"z  c #54514C",
"x  c #5D514A",
"c  c #4D5453",
"v  c #5A5652",
"b  c #575854",
"n  c #62544D",
"m  c #675A4D",
"M  c #635A53",
"N  c #6C5F55",
"B  c #57605E",
"V  c #5B625F",
"C  c #63625E",
"Z  c #6D625A",
"A  c #76635B",
"S  c #79665C",
"D  c #77695F",
"F  c #545C60",
"G  c #5E6662",
"H  c #5E6A60",
"J  c #5F6F6C",
"K  c #626662",
"L  c #676C67",
"P  c #696862",
"I  c #726D65",
"U  c #7B6D63",
"Y  c #77726B",
"T  c #6B7571",
"R  c #767770",
"E  c #737975",
"W  c #7A7973",
"Q  c #7D7F7A",
"!  c #867567",
"~  c #83746B",
"^  c #8D7A6D",
"/  c #837C74",
"(  c #897D72",
")  c #7E837D",
"_  c #84847C",
"`  c #8A847D",
"'  c #968274",
"]  c #9C8972",
"[  c #94847B",
"{  c #96897E",
"}  c #998A7D",
"|  c #AB9279",
" . c #808486",
".. c #848B86",
"X. c #8E8C84",
"o. c #8B8F8A",
"O. c #928B82",
"+. c #998B82",
"@. c #8E918A",
"#. c #9B958A",
"$. c #9B9B93",
"%. c #A38D82",
"&. c #A39386",
"*. c #A89086",
"=. c #A1948A",
"-. c #A59E8E",
";. c #B59B8C",
":. c #A39C93",
">. c #AC9F93",
",. c #B39D92",
"<. c #9CA29A",
"1. c #A5A296",
"2. c #ACA195",
"3. c #A7A399",
"4. c #B1A294",
"5. c #B8A193",
"6. c #BAA897",
"7. c #B3A499",
"8. c #B2A99E",
"9. c #BAAA9E",
"0. c #A7ACA3",
"q. c #B6ACA1",
"w. c #BEAEA2",
"e. c #AFB3AA",
"r. c #BDB4A4",
"t. c #BBB5A9",
"y. c #B6BAB1",
"u. c #BDBFB5",
"i. c #C3AC9F",
"p. c #C1AEA1",
"a. c #C3B2A6",
"s. c #CDB4A7",
"d. c #C2B5A8",
"f. c #C5BAAE",
"g. c #CBBCAA",
"h. c #C4BEB2",
"j. c #CBBEB2",
"k. c #BFC4BA",
"l. c #CDC2B5",
"z. c #C2C4BB",
"x. c #CEC5B8",
"c. c #C7C9BE",
"v. c #D1C2B6",
"b. c #D3C6B9",
"n. c #D3CBBD",
"m. c #DACABC",
"M. c #DCD2BE",
"N. c #C8CAC0",
"B. c #D6C5C0",
"V. c #D6CEC0",
"C. c #DACEC2",
"Z. c #CED0C5",
"A. c #D5D1C3",
"S. c #DAD2C5",
"D. c #D0D4C9",
"F. c #DDD6C9",
"G. c #D7D8CD",
"H. c #DED9CB",
"J. c #DDDED1",
"K. c #E1DBCE",
"L. c #E4DED1",
"P. c #E6E1D4",
"I. c #E9E3D6",
"U. c #E4E2D8",
"Y. c #EAE6D9",
"T. c #E7E9DC",
"R. c #EDEADC",
"E. c #F2ECDD",
"W. c #EDECE2",
"Q. c #F1EEE2",
"!. c #EEF1E4",
"~. c #EEF1E8",
"^. c #F3F1E5",
"/. c #F9F2E5",
"(. c #F4F4E9",
"). c #FAF7E8",
"_. c #FBFAEC",
"`. c #FFFFF4",
"'. c #FFFFFD",
/* pixels */
"% % % % % o : t ' 2.U & % $ 3 ^ ^ 4 $ % % % + > @ > @.k.<.4 X $ ",
"% % % % o P O.$ x 4.^ 0 o @ g &.l @ % % $ . e C   T _.P `.R., % ",
"% % % o g { A , 3 ^ *.S = o M &.k $ $ . @ B X.6   <._.c.^.-.% % ",
"% & % $ Z N M g o ^ 9.} r . D 4.x o   d u.( * -   N.'.`.P.l . % ",
"% % $ 4 M g M [ : u } 6.D , S +.N 4 Q I.} ; 7 : & (.1.Q '.1.X % ",
"% % X 2 m u M +.4 u >.F.E.n.2.n.).H.v.7.M y p . d '.T.T.1.3 + $ ",
"  ..) X ~ f M O.k { P.(._.^.V.8.Y._.8.a 6 x 4   V ^.1.f O o % % ",
"1 `.'.< M ( a M Z r.n.K.W.Q.~.F.l.Q.H.~ a 5 $ $ X h T r . % % % ",
"1 ( h._ > :.U M q.(.K.f.F.U.R.!.H.S.R.q.$.@ $   G 3.z.8.X $ % % ",
"o . . O o =.,.q.A.W.(.K.C.C.F.L.Y.F.L.x.a.h   : R.:.z.^.3 X % % ",
"X e.W.) X Y g.g.S.L.I.K.S.F.S.B.L.P.F.W.7.r @ c.'.P.Y.'./ . % % ",
"o J.>.9 . ` t.n.F.K.n.f.f.x.J.F.B.P.P.L.P.5 F '.'.Y B '.K.9 @ % ",
": b w H 9 v.l.x.K.E.r.N ! i.,.J.n.v.~.L.I.$.# n.).7 & _.'.O.o % ",
"o e _.Z L I.l.l.F.T.l.| ] 6.7.L.H.f.W.R.K.I.c 3 D o & Y.q.p o $ ",
". h n.. u.S.n.l.V.L.F.B.g.j.n.S.F.V.Y.Q.I.S.S.2 @ X X 3 = 1 $ $ ",
"$ 1 r q I.m.F.M.V.S.L.I.S.V.S.F.S.S.Y.(.R.H.M.t.D.G.% J ).$.. % ",
"% %   R ).V.F.H.F.K.I.^.R.R.P.P.F.F.I.~.Q.I.C.n./.`.4 e.'.o.  $ ",
"% % o z.E.F.K.K.S.F.I.R.Q.Q.^.W.Y.P.L.L.W.R.I.S.S.R.!.^.'.#.. % ",
"% . d Q.F.P.K.P.F.V.F.P.I.R.^.^.~.Q.R.P.I.W.W.L.n.v.C./.'.t.X % ",
"%   o./.m.I.K.K.P.S.n.H.K.Y.Q.^.(.(.(.Q.I.I.I.S.p.7.+.v !.Y.- $ ",
"% o U.(.L.K.S.C.I.K.S.m.S.K.Y.Q.Q.(.(.^.Q.L.L.v.n U N 8 k.`.r X ",
". d '.Y.Y.P.n.l.F.L.K.F.C.S.K.I.Q.Q.~.Q.W.R.Y.I.( a a 8 o.'.P X ",
"  @.E.L.I.E.K.s.5.V.R.T.K.K.S.K.L.I.R.R.K.d.S.L.Y.d.[ n c U.M o ",
"q L.S.K.K.I.P.n.f.;.i.n.n.I.R.L.F.K.K.L.L.K.x.>.a.w.%.M w = X % ",
"D.Q.K.K.F.L.R.L.F.b.d.;.' ! =.2.t.V.K.L.L.E.E.F.j.g./  .'.b o $ ",
"K.L.L.L.L.R.L.K.H.K.K.l.9.{ U ~ j O.K.K t K R F.R.t.4 y.'.l X % ",
"C.J.I.W.W.R.Y.R.R.Y.K.M.a.7.%.( 5 I c   .   o T.`.`._.`./.i o % ",
"C.S.F.I.L.I.I.I.U.L.L.n.p.6.[ = 1 W % % % X e `.R._ 0.`.R.5 + % ",
"n.A.F.H.L.P.P.P.K.F.A.l.a.5.,.z o c + % %   E '.r.  q '.R.3 + % ",
"S.K.S.S.L.L.P.L.P.K.F.S.j.p.s.M X : % % % X G.'.O.  d '._.p X % ",
"x.F.A.V.K.H.K.K.P.R.S.K.C.v.a.: $ % % % % & ..Z.I   c G.D.j o % ",
"x.M.n.M.H.M.n.n.n.F.n.n.n.S.f.$ $ % % % % % . o & $ @ X X @ % $ "
};
