/* XPM */
static char *_faa265c9acd47dcd61b8d27c0cd871e1odiApcNUgnZopoN[] = {
/* columns rows colors chars-per-pixel */
"8 8 2 1 ",
"  c None",
". c black",
/* pixels */
"        ",
"  .  .  ",
"  .  .  ",
"  .  .  ",
".      .",
"..    ..",
" ..  .. ",
"  ....  "
};
