/* XPM */
static char *_6994f84bfaa46aea7885fa75bfd0ec27JXRkkjK3IC2O8p7[] = {
/* columns rows colors chars-per-pixel */
"32 32 160 2 ",
"   c None",
".  c #040302",
"X  c #080604",
"o  c #0C0906",
"O  c #0D0B09",
"+  c #110B07",
"@  c #120E09",
"#  c #15120B",
"$  c #1B130B",
"%  c #1D180F",
"&  c #1B1711",
"*  c #1E1A13",
"=  c #22160E",
"-  c #25180F",
";  c #291A0F",
":  c #241C12",
">  c #2B1D11",
",  c #301F13",
"<  c #2B2115",
"1  c #252119",
"2  c #2A251C",
"3  c #352315",
"4  c #3A2515",
"5  c #33261B",
"6  c #3C2718",
"7  c #332B1E",
"8  c #3E2A19",
"9  c #2F2C25",
"0  c #322D22",
"q  c #3D2F21",
"w  c #3E3021",
"e  c #432917",
"r  c #432C1B",
"t  c #492E1B",
"y  c #46331D",
"u  c #4C321E",
"i  c #54351E",
"p  c #443423",
"a  c #4F3420",
"s  c #433927",
"d  c #4B3923",
"f  c #453B29",
"g  c #4C3D2A",
"h  c #533621",
"j  c #583720",
"k  c #543A23",
"l  c #5C3C25",
"z  c #543D2B",
"x  c #613E26",
"c  c #4F432D",
"v  c #574125",
"b  c #5A4226",
"n  c #55432D",
"m  c #58432F",
"M  c #554430",
"N  c #5A4430",
"B  c #564935",
"V  c #5A4B34",
"C  c #5E513B",
"Z  c #614127",
"A  c #684126",
"S  c #644229",
"D  c #6B462A",
"F  c #634A2E",
"G  c #6D492C",
"H  c #734B2E",
"J  c #7C4E2D",
"K  c #6D512E",
"L  c #7E502E",
"P  c #624F37",
"I  c #764E30",
"U  c #784F31",
"Y  c #675133",
"T  c #6D5332",
"R  c #645539",
"E  c #6D543B",
"W  c #67583B",
"Q  c #6F5A3F",
"!  c #7F5D36",
"~  c #735639",
"^  c #75593E",
"/  c #7C5D38",
"(  c #81522F",
")  c #845431",
"_  c #8B5733",
"`  c #845D35",
"'  c #8C5A34",
"]  c #835D3A",
"[  c #8A5F3F",
"{  c #945E37",
"}  c #86633A",
"|  c #8B6239",
" . c #8B683E",
".. c #956037",
"X. c #956339",
"o. c #9C653A",
"O. c #9D693D",
"+. c #A26C3E",
"@. c #8D6443",
"#. c #866947",
"$. c #8A6E45",
"%. c #906745",
"&. c #936D43",
"*. c #946C4A",
"=. c #8E7047",
"-. c #9B7445",
";. c #91744B",
":. c #997A4D",
">. c #8E7858",
",. c #937754",
"<. c #967C55",
"1. c #9E7D54",
"2. c #A36E41",
"3. c #A57245",
"4. c #A17847",
"5. c #A87448",
"6. c #AA7F4B",
"7. c #B07B47",
"8. c #B27F49",
"9. c #9F885B",
"0. c #AC814D",
"q. c #B6834C",
"w. c #B8854F",
"e. c #BC894F",
"r. c #A28253",
"t. c #AC8554",
"y. c #AD8759",
"u. c #AD8B5A",
"i. c #B88754",
"p. c #BE8C52",
"a. c #B18E5A",
"s. c #B7925D",
"d. c #B9945F",
"f. c #998462",
"g. c #A68A61",
"h. c #A18F6C",
"j. c #A9916C",
"k. c #BA9760",
"l. c #BC9963",
"z. c #BE9D6B",
"x. c #BEA26D",
"c. c #BDA176",
"v. c #C18E52",
"b. c #C3945D",
"n. c #D2A25E",
"m. c #C69860",
"M. c #C09F6E",
"N. c #D5AA6C",
"B. c #C4A575",
"V. c #C7AA72",
"C. c #C8AB74",
"Z. c #C5A779",
"A. c #C7AA7E",
"S. c #C9AC7E",
"D. c #CDB27E",
"F. c #C8AC80",
"G. c #CDB381",
"H. c #CFB78A",
"J. c #D0B787",
"K. c #D2BA8C",
/* pixels */
"  . # * * : * * X X X X X X . . . . . . X . . . : * * * & X .   ",
". h.J.K.K.G.D.S.p 9 9 * & # $ # # # # # @ + + & F.F.B.M.l.a.n . ",
"2 K.K.G.V.V.V.V.g t t i a i j j j j j j j i t : F.F.z.k.d.d.s.# ",
"0 K.G.C.V.V.V c , ( { { %.+.o.+.+.o.+.o.o.{ { r 2 s M.k.k.s.s.: ",
"0 J.C.C.V.x.3 D H { o.2.2.2.5.5.5.5.2.2.2.2.{ { ( e c.z.d.d.y.< ",
"0 D.V.x.f 7 $ t k z z N N N N N m m N N z z z z h ; B V ,.s.r.< ",
"0 C.V.r.e x + = = : > , , , > > , , , > , > : = = o i i V a.=.< ",
"& W R g i ` = y 8 8 r r x x a a u u x x a t t r r @ ( ( 8 K V % ",
"o 1 > x ( [ = 6 5 z g = l x : d s < a x : f y - r # ' ) 4 - @ X ",
"O 9 3 _ o.@.= r ^ 8.7.p l S M b.e.G a Z n q.7.S e # { o._ i * O ",
"O < 3 { o.*.= r ~ q.q.y l S m v.v.K a S n q.8.S e # o.o.o.h & X ",
"O : 4 { +.*.= t : 8 8 $ S D : d i < h S - y y : t $ o.o.o.h @ X ",
"O & 3 o.+.*.= l u u i h G H j h y u G H a r r 8 j $ 2.+.o.j + . ",
"X % 4 o.+.*.: l j j l b H I G G G G H H S l l k l $ 2.+.o.j @ X ",
"X % 4 o.+.*.; h : w w $ S U % 7 7 : a I & w 8 : r $ 2.2.+.h + . ",
"X & 4 +.+.*.; i ^ p.p.v S U g N.n.&.r I z m.p.G r $ 2.+.o.k @ . ",
"X = 4 +.+.*.- h Y p.v.v x U g n.n.&.y I c v.e.b r $ +.+.O.j @ . ",
"X $ 4 o.+.*.- h 2 l b > l U < T K d y H : v k ; r $ 3.+.o.i O . ",
"X $ 4 +.+.*.- l r 6 8 r D I a 8 8 8 Z H u r 8 6 j $ +.+.o.i O . ",
"X & 4 o.+.%.- l j j l l G I S l l j G H v i i u b $ O.+.X.i O X ",
"X # 4 o.+.%.= h : w w $ S I : g g 3 u D : y 4 % r $ X.+...u o . ",
"X # 3 { o.%.= t E i.w.g l G s b.v.} r S z 7.| u r # ..o._ i o . ",
"X @ 3 ' o.@.= r F 0.8.i l S p p.p.! 8 Z y | ` y 6 $ _ o.J i o . ",
". X o 3 { | $ e < i d - j A $ 8 6 - 6 b # 3 3 $ 3 $ ( ' 4 = . . ",
"> f.j.B J ) $ 6 > , 3 3 k l y r 8 8 h l r 4 3 3 6 $ H A g #. .- ",
"0 F.A.C $ $ . X X X X X X X X X X X X o X X X X . . $ $ ~ 0.6.< ",
"7 B.k.z.g.>.e H ) ' ' { o.O.O.2.+.+.O.o.o...' ( D e ,.y.t.0.-.> ",
"7 z.l.k.l.<.e ) { o.o.+.+.2.2.+.3.+.+.+.O.o...( i , 1.0.0.0.O.: ",
"7 l.l.l.d.u.> < 4 _ { o.o.o.o.o.o.....' _ L H t n R t.0.0.0.} : ",
"2 l.k.k.d.d.:.$.$ : > > : ; ; ; ; ; - - ; ; = $ ;.0.0.0.0. .} : ",
"+ 9.d.a.r.;.$.$.* 9 1 # $ # # # # # # # O @ O o / -.-. .} ! F X ",
". . o O o o o O . . . . . . . . . . . . . . . . o O o o o . . . "
};
