/* XPM */
static char *c0ed76ea74334128e264608ad4f483eb1WmQoEHwuuSdCJgc[] = {
/* columns rows colors chars-per-pixel */
"8 8 3 1 ",
"  c None",
". c black",
"X c white",
/* pixels */
"XXXXXXXX",
"XXXXXXXX",
"XX.XX.XX",
"XXXXXXXX",
". XXX X.",
".. XXX..",
"X.. X..X",
"XX.... X"
};
