/* XPM */
static char *c3d91d740d974e8c937373e7325c8ff3mR9AuL0Hpd4uRNyW[] = {
/* columns rows colors chars-per-pixel */
"32 32 155 2 ",
"   c None",
".  c #000000",
"X  c #0D0301",
"o  c #130501",
"O  c #1B0602",
"+  c #1E1E1E",
"@  c #240C04",
"#  c #2B0C04",
"$  c #340D05",
"%  c #271006",
"&  c #2E1206",
"*  c #321006",
"=  c #3A1407",
"-  c #3B1508",
";  c gray15",
":  c #2A2A2A",
">  c #323232",
",  c #3A3A3A",
"<  c #400F06",
"1  c #421107",
"2  c #4C1508",
"3  c #4D1A0A",
"4  c #531C0A",
"5  c #5B1B0A",
"6  c #631D0B",
"7  c #6C1C0A",
"8  c #711C0B",
"9  c #7E1E0B",
"0  c #5E210C",
"q  c #66230D",
"w  c #6C230D",
"e  c #71230D",
"r  c #7C240D",
"t  c #73280F",
"y  c #79290F",
"u  c #762A10",
"i  c #7C2B10",
"p  c #5C5C5C",
"a  c #646464",
"s  c gray42",
"d  c #727272",
"f  c #7C7C7C",
"g  c #871F0C",
"h  c #84240D",
"j  c #8A240E",
"k  c #83280F",
"l  c #92220D",
"z  c #9B260E",
"x  c #93290F",
"c  c #9F280F",
"v  c #822D11",
"b  c #8B2D11",
"n  c #962B10",
"m  c #9C2B10",
"M  c #8C3213",
"N  c #943213",
"B  c #9D3313",
"V  c #A0270F",
"C  c #A2280F",
"Z  c #A32C10",
"A  c #AC2D11",
"S  c #B62E11",
"D  c #BA2D11",
"F  c #A53313",
"G  c #AB3313",
"H  c #AD3916",
"J  c #B33413",
"K  c #BB3213",
"L  c #B43A16",
"P  c #BC3B16",
"I  c #B43F18",
"U  c #D02F12",
"Y  c #C23615",
"T  c #C93614",
"R  c #C23C16",
"E  c #CC3A16",
"W  c #CA3E18",
"Q  c #D33514",
"!  c #D63B16",
"~  c #D93C17",
"^  c #D03F18",
"/  c #D83F18",
"(  c #BD4119",
")  c #C34219",
"_  c #CB4319",
"`  c #C74C1D",
"'  c #C54B1D",
"]  c #D74219",
"[  c #D2431A",
"{  c #D94018",
"}  c #D94119",
"|  c #D94118",
" . c #DA4219",
".. c #DA4319",
"X. c #DB4319",
"o. c #DC4018",
"O. c #DD4319",
"+. c #DB441A",
"@. c #DB451A",
"#. c #DC461B",
"$. c #DC471B",
"%. c #DD471B",
"&. c #DE471B",
"*. c #DA4319",
"=. c #D54A1C",
"-. c #DD491B",
";. c #DD491C",
":. c #DE491C",
">. c #DF481C",
",. c #DE4A1C",
"<. c #DE4B1C",
"1. c #DF4C1D",
"2. c #DF4D1D",
"3. c #DF4F1E",
"4. c #DE4B1C",
"5. c #C5501F",
"6. c #E04219",
"7. c #E24319",
"8. c #E54B1C",
"9. c #E14C1D",
"0. c #E34C1D",
"q. c #E04F1E",
"w. c #E14F1E",
"e. c #E74C1D",
"r. c #E94A1C",
"t. c #F1521F",
"y. c #F2521F",
"u. c #D25420",
"i. c #808080",
"p. c #8B8B8B",
"a. c #949494",
"s. c #9C9C9C",
"d. c gray64",
"f. c #A5A5A5",
"g. c gray65",
"h. c #A7A7A7",
"j. c #A3A3A3",
"k. c gray66",
"l. c #A9A9A9",
"z. c #ACACAC",
"x. c #AEAEAE",
"c. c #AFAFAF",
"v. c gray67",
"b. c gray69",
"n. c #B1B1B1",
"m. c #B2B2B2",
"M. c #B7B7B7",
"N. c #B3B3B3",
"B. c #BBBBBB",
"V. c gray76",
"C. c gray77",
"Z. c #C5C5C5",
"A. c #CACACA",
"S. c #D1D1D1",
"D. c #E7E7E7",
/* pixels */
"  . # @ @ * & % @ * & % % & & % % & * % % * & % @ & # & @ X .   ",
"X ) t.) ) e.e.) ' 8.0.P 5.0.;.L u.9.O.L ` ] ! K H ! Q D G ! w . ",
"$ t.7.L L Q Q S L ! / G ( ] ~ F ) | / G L ~ ! K F Q Q D C U ! @ ",
"= e.Q Z A Q Q G J / / J G ] | G L | ~ G J | ! J Z ! ! S C Q U = ",
"= 7.Q A A Q ! G J | | G J $.=.F P #.#.G J | ~ J F ! Q K V Q Q 1 ",
"- ~ Q Z S ! ! G J O.$.L L $.#.H R #.-.H L #.~ L F ! ! K Z Q Q < ",
"= ~ Q A G ~ | G L | $.H L ;.4.H ( ;.;.H L $.$.L F ! / K Z Q Q = ",
"- O.Q m J | | F L #.#.H I 2.3.B ( 0.2.F L ;.#.L F | | J V Q Q $ ",
"- #.! x J / ] v L -.-.N I 2.2.v ( w.w.M L ;.;.B F $.] c m ! K # ",
"@ b r 2 w k 7 3 y b t 4 t M t 3 i M u 3 t v y 4 6 y r 4 5 7 6 O ",
"> V.V.M.n.c.n.n.n.n.n.n.c.c.c.c.l.h.f.k.k.f.d.f.h.v.f.h.h.h.f.> ",
", D.A.Z.d.d.d.s.s.s.C.A.f.d.Z.A.A.S.M.x.Z.A.s.s.s.s.s.s.B.Z.Z., ",
", S.A.f.. . . . . . d.n.. . d.S.S.B.. . z.M.. . . . . . a.Z.Z., ",
", S.V.s.. . . . . . d.n.. . a p.Z.B.. . k.M.. . . . . . a.Z.Z., ",
", S.Z.V.v.i.. . f c.A.n.. . . . n.B.. . f.A.C.d.. . a n.Z.Z.Z., ",
", S.Z.Z.Z.d.. . a.A.A.n.. . . . f i.. . d.A.A.k.. . f Z.Z.Z.Z.> ",
", S.Z.Z.Z.d.. . a.A.A.M.. . d d . . . . d.A.A.l.. . f C.C.Z.C.: ",
", S.Z.Z.Z.d.. . a.A.A.N.. . s.s.. . . . d.A.Z.l.. . i.Z.C.Z.B.: ",
", S.Z.Z.Z.d.. . a.Z.A.n.. . s.Z.p.d . . d.A.Z.l.. . i.Z.Z.Z.l.: ",
", S.Z.Z.Z.s.. . a.Z.A.n.. . s.S.S.n.. . h.A.A.h.. . f Z.Z.M.p.: ",
", A.Z.Z.Z.V.s.a.B.Z.A.Z.f.s.Z.A.A.A.h.d.Z.A.Z.V.p.i.s.d.s.p.p.: ",
"; p.i.i.i.i.i.i.i.i.i.i.i.i.i.i.i.f d d s a p p p p p p p p a + ",
"@ h h 5 8 k k 5 i b v 0 i v i 4 i v i w q i i w q k k e 6 j h @ ",
"- | Q r L | [ w _ ;.$.t ) w.` q =.3.( i H =.H i F X.R k C ! c # ",
"- ~ Q m J ~ | b W $.;.n ) 3.2.i =.0.2.M H ;.;.b F O.] z C ! C # ",
"- ~ Q m K ~ | n W $.$.B ) ;.;.b =.;.;.F G $.$.F F | ! A m ! A # ",
"- / Q Z K ^ ~ n W | O.B R $.$.b _ ;.$.G G @.| G F ] ! J V Q V # ",
"- ! Q c S ! ~ n W ~ | B P $.$.b [ @.$.L F ] ] J C ! ! K V Q z # ",
"= ! U V S Q Q n E ! ~ m P *.| b ^ | | J G ~ ~ J Z ! Q A c D l # ",
"= ! U z S Q ! h E ! ! k Y / ~ v ^ ~ | F F ~ ! Z A Q Q z h l l # ",
"O Y U g D Q K 7 E ! K 8 Y ~ E 7 E ~ E j z K D h j C V 9 7 g 8 . ",
". . o o o O o o O O o o O O o X o o o X X o o o X o o o X X . . "
};
