/* XPM */
static char *_34ef84b4dfa48fc8ab4f17a668ff850oYXFlkYU8jXMtQmb[] = {
/* columns rows colors chars-per-pixel */
"32 32 87 1 ",
"  c #953737",
". c #963F3E",
"X c #984F4B",
"o c #995041",
"O c #B54A4A",
"+ c #B74F4E",
"@ c #A45644",
"# c #B95654",
"$ c #BB5B59",
"% c #A46D5C",
"& c #9F7D6E",
"* c #DD5151",
"= c #DD5655",
"- c #D35F5F",
"; c #DE5C5A",
": c #DE5D5C",
"> c #D56967",
", c #D56A68",
"< c #D87874",
"1 c #DA7F7A",
"2 c #E06562",
"3 c #E16F6B",
"4 c #E37860",
"5 c #E2746F",
"6 c #F37F65",
"7 c #DB827C",
"8 c #E48169",
"9 c #E68D75",
"0 c #F38D74",
"q c #E6927B",
"w c #A4A191",
"e c #DD8B84",
"r c #DE8888",
"t c #DF938B",
"y c #D59E92",
"u c #E89C84",
"i c #E0978E",
"p c #EA9B89",
"a c #E09990",
"s c #E19E93",
"d c #D6A094",
"f c #F3A188",
"g c #E2A095",
"h c #EBA291",
"j c #E8A195",
"k c #E9A890",
"l c #EAAB93",
"z c #E3A89C",
"x c #EAAB9E",
"c c #EAAC9F",
"v c #EDAF9D",
"b c #E5AFA2",
"n c #E6A9A4",
"m c #E6B2A5",
"M c #EBB2A4",
"N c #ECBAA2",
"B c #ECBDA5",
"V c #EDBDA6",
"C c #E8BAAB",
"Z c #ECBDAD",
"A c #EDC1A9",
"S c #F3C0A7",
"D c #E2C1B0",
"F c #E4C4B3",
"G c #E9C1B1",
"H c #EDC3B2",
"J c #EAC4B3",
"K c #EAC5B4",
"L c #EBC8B7",
"P c #ECC3BA",
"I c #F3CBB3",
"U c #F3CEB6",
"Y c #F3D0B8",
"T c #EDD3C0",
"R c #EDD3C1",
"E c #EBD8C4",
"W c #F0D8C1",
"Q c #F1DDC9",
"! c #F1DEC9",
"~ c #F0DFCA",
"^ c #F3E2CB",
"/ c #F1E1CC",
"( c #F3E4CC",
") c #F2E8D1",
"_ c #F3E9D3",
"` c #F4EED7",
"' c #F6F2E1",
/* pixels */
"rrrrrrrrrrrrn'vppppppppppph'Prrr",
"------------e`q444444444448`b---",
"------------e`q444444444448`b---",
"------------e`q444444444448`b---",
"------------e`q444444444448`b---",
"mmmmmmmmmbmmK`ABBBBBBBBBBBA`RMmm",
"dyyyyE)zzzzzzzzzzzzJ`xsjjjjjjjjj",
"+OOOOD/------>-----i`2**********",
"+OOOOD/------------i`2**********",
"+OOOOD/>-----------i`,**********",
"+OOOOD/-----------:i`2**********",
"$####F/>>>>>>>>>>>>s`3;;:;;;;;;;",
"````````)```````````````````````",
"999999999999l`t<<<<<<<<<<<7`C<<<",
"444444444444u`1-----------,`b---",
"444444444444u`1-----------,`b---",
"444444444444u`<-----------,`b---",
"444444444444u`1>----------,`b---",
"kkkkkklkkkkkB`zaaaiaaaaaaas`Laaa",
"ZZZZZ~_GGGGGGGGMGGGR`YIIIIIIIIII",
"=****H/------------i`06666666666",
"=****H/------------i`06666666666",
"=****H/------------i`06666666666",
"=****H/------------i`06666666666",
"=****IQ::>;--->>--:i`00866666666",
"~~QQQ(_~~^QQ~QQQ~~~/`^W^^^^^^^^^",
"VVSNVNVSBSSBU`CbnvvxvvnbMxM`YVVV",
"660666086686f`5***********;`N444",
"666666666666f`5***********:`N444",
"666666666666f`5***********:`N444",
"666666666666f`5***********:`N444",
"@@@@@@@@@@@@%wX           .w&ooo"
};
